<?xml version="1.0" encoding="UTF-8"?>
<!-- Generator: visioncortex VTracer 0.6.3 -->
<svg version="1.1" xmlns="http://www.w3.org/2000/svg" width="1280" height="1280">
<path d="M0 0 C1.66 -0 3.33 -0 4.99 -0.01 C9.57 -0.01 14.15 -0.01 18.72 -0.01 C23.7 -0 28.68 -0.01 33.66 -0.01 C42.38 -0.02 51.11 -0.02 59.83 -0.02 C72.8 -0.02 85.78 -0.02 98.75 -0.03 C123.27 -0.04 147.79 -0.04 172.31 -0.04 C175.02 -0.04 177.72 -0.04 180.43 -0.04 C181.1 -0.04 181.77 -0.04 182.46 -0.04 C197.33 -0.04 212.21 -0.04 227.08 -0.04 C233.21 -0.04 239.34 -0.05 245.46 -0.05 C246.14 -0.05 246.82 -0.05 247.51 -0.05 C286.3 -0.05 325.09 -0.06 363.87 -0.06 C365.33 -0.06 366.78 -0.06 368.23 -0.06 C374.78 -0.06 381.33 -0.06 387.89 -0.06 C390.81 -0.06 393.73 -0.06 396.65 -0.06 C398.11 -0.06 399.58 -0.06 401.04 -0.06 C447.28 -0.06 493.52 -0.06 539.77 -0.08 C551.42 -0.08 563.07 -0.08 574.72 -0.09 C575.44 -0.09 576.15 -0.09 576.89 -0.09 C599.01 -0.09 621.12 -0.1 643.24 -0.1 C643.93 -0.1 644.62 -0.1 645.34 -0.1 C660.59 -0.1 675.83 -0.1 691.07 -0.1 C696.53 -0.1 701.98 -0.1 707.44 -0.1 C708.8 -0.1 710.15 -0.1 711.51 -0.1 C733.12 -0.1 754.74 -0.11 776.35 -0.11 C798.73 -0.12 821.1 -0.12 843.48 -0.12 C856.38 -0.11 869.28 -0.12 882.18 -0.13 C890.79 -0.13 899.41 -0.13 908.03 -0.12 C912.94 -0.12 917.85 -0.12 922.75 -0.13 C927.23 -0.13 931.7 -0.13 936.17 -0.12 C937.77 -0.12 939.37 -0.12 940.98 -0.13 C971.49 -0.22 971.49 -0.22 980.57 7.69 C982.63 10.13 982.63 10.13 982.63 12.13 C983.28 12.3 983.94 12.47 984.61 12.64 C991.24 14.48 996.78 16.05 1000.51 22.25 C1001.63 25.13 1001.63 25.13 1001.63 27.13 C1002.52 27.36 1003.41 27.58 1004.32 27.82 C1009.05 29.69 1011.6 31.99 1013.83 36.61 C1016.63 43.42 1016.63 43.42 1016.63 46.13 C1017.21 46.38 1017.79 46.62 1018.38 46.88 C1021.81 48.79 1024.11 50.88 1025.64 54.54 C1025.87 55.41 1026.09 56.29 1026.32 57.19 C1026.66 58.48 1026.66 58.48 1027.02 59.79 C1028.65 68.66 1028.78 77.59 1028.76 86.59 C1028.76 88.41 1028.76 88.41 1028.77 90.27 C1028.77 93.62 1028.77 96.97 1028.77 100.32 C1028.76 103.97 1028.77 107.63 1028.77 111.28 C1028.78 117.68 1028.78 124.07 1028.78 130.47 C1028.78 139.98 1028.78 149.5 1028.79 159.01 C1028.79 176.99 1028.8 194.97 1028.8 212.95 C1028.8 226.84 1028.8 240.72 1028.8 254.61 C1028.8 258.61 1028.81 262.6 1028.81 266.6 C1028.81 267.6 1028.81 268.59 1028.81 269.61 C1028.81 297.57 1028.82 325.53 1028.82 353.49 C1028.82 354.54 1028.82 355.59 1028.82 356.68 C1028.82 362.02 1028.82 367.36 1028.82 372.7 C1028.82 374.29 1028.82 374.29 1028.82 375.92 C1028.82 378.06 1028.82 380.21 1028.82 382.35 C1028.82 415.73 1028.82 449.1 1028.84 482.47 C1028.85 519.98 1028.86 557.48 1028.86 594.98 C1028.86 598.98 1028.86 602.98 1028.86 606.98 C1028.86 607.97 1028.86 608.95 1028.86 609.97 C1028.86 625.81 1028.87 641.64 1028.87 657.48 C1028.88 673.41 1028.88 689.33 1028.88 705.25 C1028.87 714.71 1028.88 724.16 1028.89 733.62 C1028.89 739.94 1028.89 746.26 1028.88 752.58 C1028.88 756.18 1028.88 759.78 1028.89 763.38 C1028.97 804.67 1028.97 804.67 1020.51 814.63 C1018.63 816.13 1018.63 816.13 1016.63 816.13 C1016.46 816.78 1016.29 817.43 1016.12 818.11 C1014.65 823.37 1013.31 827.94 1009.63 832.13 C1008.5 832.56 1007.36 832.99 1006.19 833.44 C1001.69 835.57 1000.95 837.75 998.79 842.04 C997.16 844.97 995.73 845.89 992.63 847.13 C990.04 847.85 987.46 848.56 984.84 849.19 C982.07 850.37 981.73 851.41 980.63 854.13 C973.14 861.85 961.1 861.96 951 862.22 C946.72 862.26 942.44 862.26 938.16 862.26 C936.49 862.26 934.83 862.26 933.16 862.26 C928.59 862.27 924.02 862.27 919.45 862.26 C914.48 862.26 909.51 862.27 904.53 862.27 C895.82 862.27 887.11 862.28 878.39 862.27 C865.43 862.27 852.47 862.28 839.51 862.28 C815.02 862.29 790.53 862.3 766.04 862.3 C763.34 862.3 760.64 862.3 757.94 862.3 C756.93 862.3 756.93 862.3 755.91 862.3 C741.05 862.3 726.19 862.3 711.33 862.3 C705.21 862.3 699.1 862.3 692.98 862.3 C692.3 862.3 691.62 862.3 690.93 862.3 C652.18 862.31 613.44 862.31 574.7 862.31 C573.25 862.31 571.8 862.31 570.35 862.31 C563.8 862.31 557.26 862.31 550.72 862.31 C547.8 862.31 544.88 862.31 541.96 862.31 C540.5 862.31 539.04 862.31 537.58 862.31 C491.39 862.31 445.2 862.32 399.01 862.33 C387.38 862.34 375.74 862.34 364.1 862.34 C363.38 862.34 362.67 862.35 361.93 862.35 C339.84 862.35 317.75 862.36 295.66 862.36 C294.97 862.36 294.27 862.36 293.56 862.36 C278.33 862.36 263.1 862.36 247.88 862.36 C242.43 862.36 236.98 862.36 231.53 862.36 C230.17 862.36 228.82 862.36 227.46 862.36 C205.88 862.36 184.29 862.36 162.7 862.37 C140.35 862.38 118 862.38 95.65 862.38 C82.77 862.37 69.88 862.37 57 862.38 C48.39 862.39 39.79 862.39 31.18 862.38 C26.28 862.38 21.37 862.38 16.47 862.38 C12 862.39 7.54 862.39 3.07 862.38 C1.47 862.38 -0.13 862.38 -1.73 862.39 C-30.5 862.48 -30.5 862.48 -40.37 856.13 C-43.37 853.04 -43.37 853.04 -43.37 850.13 C-44.02 849.96 -44.67 849.79 -45.35 849.61 C-51.98 847.77 -57.52 846.21 -61.24 840 C-62.37 837.13 -62.37 837.13 -62.37 835.13 C-63.26 834.9 -64.14 834.67 -65.06 834.44 C-69.78 832.57 -72.34 830.26 -74.57 825.65 C-77.37 818.84 -77.37 818.84 -77.37 816.13 C-78.11 815.94 -78.85 815.76 -79.62 815.57 C-83.36 813.61 -84.77 810.89 -86.37 807.13 C-89.45 797.23 -89.52 787.05 -89.5 776.76 C-89.5 775.54 -89.5 774.33 -89.5 773.07 C-89.51 769.71 -89.51 766.35 -89.5 762.98 C-89.5 759.32 -89.51 755.65 -89.51 751.99 C-89.51 745.57 -89.52 739.16 -89.51 732.74 C-89.51 723.19 -89.52 713.65 -89.52 704.11 C-89.53 686.07 -89.54 668.03 -89.54 649.99 C-89.54 636.06 -89.54 622.13 -89.54 608.2 C-89.54 604.19 -89.54 600.18 -89.54 596.17 C-89.54 595.17 -89.54 594.18 -89.54 593.15 C-89.55 565.11 -89.55 537.06 -89.55 509.02 C-89.55 507.96 -89.55 506.91 -89.55 505.82 C-89.55 500.46 -89.55 495.1 -89.55 489.74 C-89.55 488.68 -89.55 487.61 -89.55 486.52 C-89.55 484.37 -89.55 482.21 -89.55 480.06 C-89.55 446.58 -89.56 413.1 -89.57 379.62 C-89.59 342 -89.6 304.38 -89.6 266.76 C-89.6 262.75 -89.6 258.74 -89.6 254.72 C-89.6 253.74 -89.6 252.75 -89.6 251.73 C-89.6 235.84 -89.6 219.95 -89.61 204.06 C-89.62 188.08 -89.62 172.11 -89.62 156.14 C-89.61 146.65 -89.61 137.17 -89.62 127.68 C-89.63 121.34 -89.63 115 -89.62 108.65 C-89.62 105.04 -89.62 101.43 -89.62 97.82 C-89.71 57.25 -89.71 57.25 -81.81 48.19 C-79.37 46.13 -79.37 46.13 -77.37 46.13 C-77.11 45.15 -77.11 45.15 -76.85 44.15 C-75.01 37.52 -73.45 31.98 -67.24 28.25 C-64.37 27.13 -64.37 27.13 -62.37 27.13 C-62.14 26.06 -61.91 24.98 -61.68 23.88 C-60.16 19.52 -59.27 18.49 -55.37 16.13 C-46.58 12.13 -46.58 12.13 -43.37 12.13 C-43.16 11.39 -42.96 10.64 -42.74 9.88 C-40.89 6.16 -39.03 5.06 -35.37 3.13 C-24.02 -0.52 -11.76 -0.02 0 0 Z M4.63 438.13 C4.18 440.68 4.18 440.68 4.26 443.61 C4.25 444.76 4.24 445.91 4.23 447.09 C4.24 448.36 4.25 449.62 4.26 450.93 C4.25 452.28 4.25 453.64 4.25 454.99 C4.23 458.72 4.24 462.45 4.25 466.18 C4.26 470.2 4.25 474.21 4.25 478.23 C4.24 486.11 4.25 493.98 4.26 501.86 C4.27 511.02 4.27 520.18 4.27 529.35 C4.26 545.69 4.28 562.04 4.3 578.38 C4.31 594.26 4.32 610.13 4.32 626.01 C4.31 643.28 4.31 660.55 4.32 677.82 C4.32 679.66 4.32 681.5 4.32 683.34 C4.33 684.25 4.33 685.15 4.33 686.08 C4.33 692.48 4.33 698.87 4.33 705.26 C4.33 713.05 4.33 720.84 4.35 728.62 C4.35 732.6 4.36 736.58 4.35 740.55 C4.35 744.19 4.35 747.82 4.37 751.46 C4.37 753.4 4.36 755.35 4.36 757.3 C4.37 758.44 4.37 759.59 4.38 760.77 C4.38 761.76 4.38 762.76 4.38 763.78 C4.4 766.32 4.4 766.32 6.63 768.13 C9.45 768.43 9.45 768.43 12.81 768.38 C13.46 768.38 14.11 768.38 14.77 768.39 C16.96 768.39 19.15 768.39 21.33 768.38 C22.91 768.38 24.5 768.39 26.08 768.39 C30.46 768.4 34.84 768.39 39.22 768.39 C43.97 768.38 48.72 768.39 53.47 768.39 C61.81 768.4 70.15 768.4 78.49 768.39 C90.89 768.39 103.3 768.39 115.7 768.4 C137.84 768.41 159.99 768.41 182.13 768.4 C201.51 768.4 220.89 768.39 240.26 768.4 C242.19 768.4 242.19 768.4 244.15 768.4 C249.36 768.4 254.57 768.4 259.78 768.4 C274.34 768.4 288.9 768.4 303.47 768.4 C304.46 768.4 304.46 768.4 305.48 768.4 C326.62 768.4 347.76 768.4 368.9 768.4 C369.58 768.4 370.27 768.4 370.98 768.4 C382.12 768.39 393.26 768.39 404.4 768.39 C448.59 768.38 492.77 768.38 536.96 768.39 C548.1 768.39 559.23 768.39 570.36 768.4 C571.05 768.4 571.74 768.4 572.44 768.4 C593.56 768.4 614.68 768.4 635.8 768.4 C636.46 768.4 637.12 768.4 637.8 768.4 C653 768.4 668.2 768.4 683.4 768.4 C688.6 768.4 693.8 768.4 699 768.4 C700.28 768.4 701.56 768.4 702.88 768.4 C722.25 768.39 741.62 768.4 760.99 768.4 C783.01 768.41 805.02 768.41 827.04 768.39 C839.37 768.39 851.71 768.39 864.04 768.4 C872.27 768.4 880.49 768.4 888.72 768.39 C893.41 768.38 898.11 768.38 902.8 768.39 C907.07 768.4 911.33 768.39 915.59 768.38 C917.13 768.38 918.67 768.38 920.22 768.39 C922.29 768.39 924.37 768.39 926.45 768.38 C928.18 768.38 928.18 768.38 929.95 768.38 C932.78 768.4 932.78 768.4 934.63 766.13 C934.94 763.67 934.94 763.67 934.89 760.77 C934.89 759.62 934.9 758.48 934.9 757.3 C934.9 756.03 934.9 754.76 934.89 753.46 C934.9 752.1 934.9 750.75 934.9 749.4 C934.91 745.67 934.91 741.94 934.91 738.21 C934.9 734.19 934.91 730.18 934.92 726.16 C934.93 718.28 934.94 710.41 934.93 702.53 C934.93 696.14 934.93 689.74 934.94 683.34 C934.94 682.43 934.94 681.52 934.94 680.58 C934.94 678.74 934.94 676.89 934.94 675.04 C934.95 657.71 934.95 640.37 934.95 623.04 C934.94 607.17 934.95 591.29 934.97 575.42 C934.99 559.14 935 542.85 934.99 526.57 C934.99 517.42 935 508.28 935.01 499.13 C935.02 491.34 935.02 483.55 935.01 475.77 C935 471.79 935 467.81 935.02 463.84 C935.03 460.2 935.02 456.57 935.01 452.93 C935.01 450.98 935.02 449.04 935.03 447.09 C935.02 445.37 935.02 445.37 935.01 443.61 C935.01 442.12 935.01 442.12 935.01 440.6 C934.83 438.08 934.83 438.08 933.24 436.31 C931.06 434.71 929.64 434.75 926.96 434.75 C926 434.75 925.04 434.74 924.05 434.73 C922.47 434.74 922.47 434.74 920.86 434.76 C919.75 434.75 918.64 434.75 917.5 434.75 C913.82 434.74 910.15 434.75 906.47 434.77 C903.92 434.77 901.38 434.77 898.83 434.76 C893.49 434.76 888.15 434.77 882.81 434.79 C876.63 434.81 870.45 434.82 864.27 434.81 C858.33 434.81 852.39 434.81 846.45 434.82 C843.92 434.83 841.39 434.83 838.86 434.83 C835.33 434.83 831.8 434.84 828.28 434.85 C827.22 434.85 826.17 434.85 825.08 434.85 C824.12 434.85 823.17 434.86 822.18 434.87 C820.93 434.87 820.93 434.87 819.65 434.87 C817.4 434.95 817.4 434.95 815.63 437.13 C815.43 440.12 815.36 443.02 815.37 446.02 C815.36 447.42 815.36 447.42 815.35 448.85 C815.34 451.99 815.34 455.13 815.34 458.28 C815.34 460.53 815.33 462.77 815.32 465.02 C815.31 469.87 815.3 474.72 815.3 479.57 C815.29 487.24 815.27 494.92 815.24 502.59 C815.21 513.36 815.18 524.12 815.16 534.89 C815.16 535.91 815.16 535.91 815.16 536.96 C815.15 541.81 815.14 546.66 815.13 551.5 C815.12 557.02 815.11 562.55 815.1 568.07 C815.1 568.75 815.1 569.43 815.1 570.13 C815.07 581.49 815.04 592.84 815.01 604.2 C814.98 611.83 814.97 619.45 814.96 627.07 C814.96 631.82 814.94 636.58 814.93 641.34 C814.92 643.53 814.92 645.73 814.92 647.93 C814.93 678.06 814.93 678.06 809.63 685.13 C803.83 689.03 798.02 690.24 791.1 690.29 C790.01 690.3 788.93 690.31 787.81 690.32 C786.64 690.32 785.48 690.33 784.28 690.33 C783.07 690.34 781.86 690.34 780.61 690.35 C778.05 690.36 775.49 690.37 772.93 690.37 C769.04 690.38 765.15 690.41 761.26 690.44 C758.77 690.45 756.27 690.45 753.78 690.46 C752.63 690.47 751.47 690.48 750.29 690.49 C742.88 690.47 734.22 690.35 727.92 685.92 C722.06 679.75 722.34 670.16 722.37 662.18 C722.37 661.22 722.37 660.26 722.36 659.27 C722.35 656.07 722.36 652.87 722.36 649.67 C722.36 647.37 722.35 645.07 722.34 642.77 C722.33 637.82 722.33 632.88 722.33 627.93 C722.32 620.12 722.31 612.3 722.29 604.49 C722.26 593.54 722.23 582.59 722.22 571.64 C722.22 570.94 722.22 570.25 722.21 569.54 C722.2 561.79 722.19 554.03 722.18 546.28 C722.18 543.47 722.18 540.65 722.18 537.84 C722.17 537.14 722.17 536.45 722.17 535.73 C722.16 524.15 722.13 512.58 722.1 501 C722.08 493.22 722.07 485.45 722.07 477.68 C722.07 472.85 722.06 468.03 722.04 463.2 C722.03 460.96 722.03 458.71 722.04 456.47 C722.05 453.42 722.03 450.37 722.02 447.31 C722.02 446.42 722.03 445.52 722.04 444.6 C722.03 443.78 722.02 442.97 722.01 442.13 C722.01 441.42 722.01 440.72 722.01 439.99 C721.51 437.53 720.6 436.64 718.63 435.13 C715.56 434.68 715.56 434.68 712.06 434.77 C710.78 434.77 709.49 434.77 708.16 434.77 C707.49 434.78 706.82 434.78 706.12 434.79 C704.07 434.82 702.02 434.81 699.97 434.81 C693.2 434.3 693.2 434.3 687.63 437.13 C687.43 440.12 687.36 443.02 687.37 446.02 C687.36 447.42 687.36 447.42 687.35 448.85 C687.34 451.99 687.34 455.13 687.34 458.28 C687.34 460.53 687.33 462.77 687.32 465.02 C687.31 469.87 687.3 474.72 687.3 479.57 C687.29 487.24 687.27 494.92 687.24 502.59 C687.21 513.36 687.18 524.12 687.16 534.89 C687.16 535.91 687.16 535.91 687.16 536.96 C687.15 541.81 687.14 546.66 687.13 551.5 C687.12 557.02 687.11 562.55 687.1 568.07 C687.1 568.75 687.1 569.43 687.1 570.13 C687.07 581.49 687.04 592.84 687.01 604.2 C686.98 611.83 686.97 619.45 686.96 627.07 C686.96 631.82 686.94 636.58 686.93 641.34 C686.92 643.53 686.92 645.73 686.92 647.93 C686.93 678.06 686.93 678.06 681.63 685.13 C675.83 689.03 670.02 690.24 663.1 690.29 C662.01 690.3 660.93 690.31 659.81 690.32 C658.64 690.32 657.48 690.33 656.28 690.33 C655.07 690.34 653.86 690.34 652.61 690.35 C650.05 690.36 647.49 690.37 644.93 690.37 C641.04 690.38 637.15 690.41 633.26 690.44 C630.77 690.45 628.27 690.45 625.78 690.46 C624.63 690.47 623.47 690.48 622.29 690.49 C614.88 690.47 606.22 690.35 599.92 685.92 C594.06 679.75 594.34 670.16 594.37 662.18 C594.37 661.22 594.37 660.26 594.36 659.27 C594.35 656.07 594.36 652.87 594.36 649.67 C594.36 647.37 594.35 645.07 594.34 642.77 C594.33 637.82 594.33 632.88 594.33 627.93 C594.32 620.12 594.31 612.3 594.29 604.49 C594.26 593.54 594.23 582.59 594.22 571.64 C594.22 570.94 594.22 570.25 594.21 569.54 C594.2 561.79 594.19 554.03 594.18 546.28 C594.18 543.47 594.18 540.65 594.18 537.84 C594.17 537.14 594.17 536.45 594.17 535.73 C594.16 524.15 594.13 512.58 594.1 501 C594.08 493.22 594.07 485.45 594.07 477.68 C594.07 472.85 594.06 468.03 594.04 463.2 C594.03 460.96 594.03 458.71 594.04 456.47 C594.05 453.42 594.03 450.37 594.02 447.31 C594.02 446.42 594.03 445.52 594.04 444.6 C594.03 443.78 594.02 442.97 594.01 442.13 C594.01 441.42 594.01 440.72 594.01 439.99 C593.51 437.53 592.6 436.64 590.63 435.13 C587.56 434.68 587.56 434.68 584.06 434.77 C582.78 434.77 581.49 434.77 580.16 434.77 C579.49 434.78 578.82 434.78 578.12 434.79 C576.07 434.82 574.02 434.81 571.97 434.81 C565.2 434.3 565.2 434.3 559.63 437.13 C559.43 440.12 559.36 443.02 559.37 446.02 C559.36 447.42 559.36 447.42 559.35 448.85 C559.34 451.99 559.34 455.13 559.34 458.28 C559.34 460.53 559.33 462.77 559.32 465.02 C559.31 469.87 559.3 474.72 559.3 479.57 C559.29 487.24 559.27 494.92 559.24 502.59 C559.21 513.36 559.18 524.12 559.16 534.89 C559.16 535.91 559.16 535.91 559.16 536.96 C559.15 541.81 559.14 546.66 559.13 551.5 C559.12 557.02 559.11 562.55 559.1 568.07 C559.1 568.75 559.1 569.43 559.1 570.13 C559.07 581.49 559.04 592.84 559.01 604.2 C558.98 611.83 558.97 619.45 558.96 627.07 C558.96 631.82 558.94 636.58 558.93 641.34 C558.92 643.53 558.92 645.73 558.92 647.93 C558.93 678.06 558.93 678.06 553.63 685.13 C547.83 689.03 542.02 690.24 535.1 690.29 C534.01 690.3 532.93 690.31 531.81 690.32 C530.64 690.32 529.48 690.33 528.28 690.33 C527.07 690.34 525.86 690.34 524.61 690.35 C522.05 690.36 519.49 690.37 516.93 690.37 C513.04 690.38 509.15 690.41 505.26 690.44 C502.77 690.45 500.27 690.45 497.78 690.46 C496.63 690.47 495.47 690.48 494.29 690.49 C486.88 690.47 478.22 690.35 471.92 685.92 C466.06 679.75 466.34 670.16 466.37 662.18 C466.37 661.22 466.37 660.26 466.36 659.27 C466.35 656.07 466.36 652.87 466.36 649.67 C466.36 647.37 466.35 645.07 466.34 642.77 C466.33 637.82 466.33 632.88 466.33 627.93 C466.32 620.12 466.31 612.3 466.29 604.49 C466.26 593.54 466.23 582.59 466.22 571.64 C466.22 570.94 466.22 570.25 466.21 569.54 C466.2 561.79 466.19 554.03 466.18 546.28 C466.18 543.47 466.18 540.65 466.18 537.84 C466.17 536.79 466.17 536.79 466.17 535.73 C466.16 524.15 466.13 512.58 466.1 501 C466.08 493.22 466.07 485.45 466.07 477.68 C466.07 472.85 466.06 468.03 466.04 463.2 C466.03 460.96 466.03 458.71 466.04 456.47 C466.05 453.42 466.03 450.37 466.02 447.31 C466.02 446.42 466.03 445.52 466.04 444.6 C466.02 443.38 466.02 443.38 466.01 442.13 C466.01 441.42 466.01 440.72 466.01 439.99 C465.51 437.55 464.56 436.65 462.63 435.13 C460.44 434.68 460.44 434.68 457.96 434.75 C457 434.74 456.04 434.73 455.06 434.72 C454.01 434.73 452.96 434.73 451.87 434.74 C450.77 434.74 449.66 434.73 448.52 434.72 C444.85 434.71 441.18 434.72 437.51 434.73 C434.96 434.73 432.42 434.73 429.87 434.72 C424.54 434.72 419.2 434.72 413.86 434.74 C407.69 434.75 401.52 434.75 395.35 434.73 C389.42 434.72 383.48 434.72 377.55 434.73 C375.02 434.73 372.5 434.73 369.97 434.72 C366.44 434.71 362.92 434.72 359.39 434.74 C358.34 434.73 357.29 434.73 356.21 434.72 C355.25 434.73 354.29 434.74 353.3 434.75 C352.47 434.75 351.63 434.75 350.77 434.75 C348.07 435.23 347.33 436.02 345.63 438.13 C345.19 440.02 345.19 440.02 345.25 442.12 C345.24 443.34 345.24 443.34 345.23 444.59 C345.24 445.93 345.24 445.93 345.25 447.3 C345.25 448.72 345.25 448.72 345.24 450.18 C345.23 453.38 345.24 456.58 345.25 459.78 C345.24 462.06 345.24 464.35 345.23 466.64 C345.22 471.57 345.22 476.51 345.22 481.45 C345.23 489.25 345.21 497.06 345.19 504.87 C345.17 515.82 345.15 526.77 345.14 537.73 C345.14 538.77 345.14 538.77 345.14 539.83 C345.14 544.76 345.13 549.7 345.13 554.63 C345.13 560.25 345.12 565.87 345.12 571.49 C345.12 572.18 345.12 572.87 345.12 573.58 C345.11 585.14 345.09 596.7 345.06 608.26 C345.04 616.02 345.04 623.78 345.05 631.53 C345.05 636.37 345.04 641.21 345.02 646.04 C345.02 648.28 345.02 650.52 345.03 652.75 C345.1 678.3 345.1 678.3 340.43 684.81 C333.69 691.38 322.53 690.44 313.85 690.43 C312.65 690.43 311.44 690.44 310.2 690.44 C307.66 690.45 305.12 690.45 302.58 690.44 C298.71 690.44 294.84 690.46 290.98 690.49 C288.5 690.49 286.02 690.49 283.54 690.49 C282.4 690.5 281.25 690.51 280.07 690.52 C272.36 690.48 264.77 689.89 258.19 685.5 C252.74 677.21 252.48 667.19 252.49 657.57 C252.48 656.62 252.48 655.68 252.48 654.71 C252.47 651.56 252.46 648.4 252.46 645.25 C252.45 642.99 252.44 640.72 252.44 638.46 C252.42 633.59 252.41 628.72 252.4 623.85 C252.39 616.16 252.36 608.47 252.34 600.78 C252.3 590 252.27 579.22 252.24 568.44 C252.24 567.76 252.23 567.08 252.23 566.37 C252.21 556.66 252.18 546.95 252.16 537.24 C252.16 536.55 252.16 535.87 252.15 535.16 C252.15 534.48 252.15 533.79 252.15 533.09 C252.12 521.7 252.09 510.3 252.05 498.91 C252.02 491.26 252 483.6 251.99 475.95 C251.98 471.2 251.97 466.45 251.95 461.7 C251.94 459.49 251.93 457.28 251.93 455.07 C251.93 452.06 251.92 449.06 251.9 446.05 C251.91 445.17 251.91 444.29 251.91 443.37 C252.08 438.77 252.08 438.77 249.63 435.13 C245.51 434.73 241.39 434.8 237.26 434.81 C235.2 434.82 233.16 434.79 231.11 434.77 C229.82 434.77 228.53 434.77 227.2 434.77 C226.01 434.76 224.82 434.76 223.6 434.76 C220.68 434.87 220.68 434.87 218.97 436.4 C217.35 438.5 217.26 439.5 217.25 442.12 C217.24 443.34 217.24 443.34 217.23 444.59 C217.24 445.93 217.24 445.93 217.25 447.3 C217.25 448.72 217.25 448.72 217.24 450.18 C217.23 453.38 217.24 456.58 217.25 459.78 C217.24 462.06 217.24 464.35 217.23 466.64 C217.22 471.57 217.22 476.51 217.22 481.45 C217.23 489.25 217.21 497.06 217.19 504.87 C217.17 515.82 217.15 526.77 217.14 537.73 C217.14 538.42 217.14 539.12 217.14 539.83 C217.14 544.76 217.13 549.7 217.13 554.63 C217.13 560.25 217.12 565.87 217.12 571.49 C217.12 572.18 217.12 572.87 217.12 573.58 C217.11 585.14 217.09 596.7 217.06 608.26 C217.04 616.02 217.04 623.78 217.05 631.53 C217.05 636.37 217.04 641.21 217.02 646.04 C217.02 648.28 217.02 650.52 217.03 652.75 C217.1 678.3 217.1 678.3 212.43 684.81 C205.69 691.38 194.53 690.44 185.85 690.43 C184.65 690.43 183.44 690.44 182.2 690.44 C179.66 690.45 177.12 690.45 174.58 690.44 C170.71 690.44 166.84 690.46 162.98 690.49 C160.5 690.49 158.02 690.49 155.54 690.49 C154.4 690.5 153.25 690.51 152.07 690.52 C144.36 690.48 136.77 689.89 130.19 685.5 C124.74 677.21 124.48 667.19 124.49 657.57 C124.48 656.62 124.48 655.68 124.48 654.71 C124.47 651.56 124.46 648.4 124.46 645.25 C124.45 642.99 124.44 640.72 124.44 638.46 C124.42 633.59 124.41 628.72 124.4 623.85 C124.39 616.16 124.36 608.47 124.34 600.78 C124.3 590 124.27 579.22 124.24 568.44 C124.24 567.76 124.23 567.08 124.23 566.37 C124.21 556.66 124.18 546.95 124.16 537.24 C124.16 536.21 124.16 536.21 124.15 535.16 C124.15 534.48 124.15 533.79 124.15 533.09 C124.12 521.7 124.09 510.3 124.05 498.91 C124.02 491.26 124 483.6 123.99 475.95 C123.98 471.2 123.97 466.45 123.95 461.7 C123.94 459.49 123.93 457.28 123.93 455.07 C123.93 452.06 123.92 449.06 123.9 446.05 C123.91 445.17 123.91 444.29 123.91 443.37 C124.08 438.77 124.08 438.77 121.63 435.13 C119.53 434.82 119.53 434.82 117.08 434.87 C116.13 434.86 115.17 434.85 114.18 434.85 C112.6 434.85 112.6 434.85 110.99 434.85 C109.33 434.85 109.33 434.85 107.63 434.84 C103.96 434.82 100.28 434.83 96.6 434.83 C94.06 434.82 91.51 434.82 88.97 434.81 C83.62 434.81 78.28 434.81 72.94 434.81 C66.76 434.82 60.58 434.81 54.41 434.79 C48.47 434.77 42.53 434.76 36.59 434.77 C34.06 434.77 31.53 434.76 29 434.75 C25.47 434.74 21.94 434.74 18.41 434.76 C17.35 434.75 16.3 434.74 15.22 434.73 C14.26 434.74 13.3 434.75 12.31 434.75 C11.47 434.75 10.64 434.75 9.78 434.75 C7.03 435.23 6.31 435.93 4.63 438.13 Z " fill="#000000" transform="translate(170.36866283416748,208.87136554718018)"/>
</svg>
